<?xml version="1.0" encoding="utf-8"?>
<!-- Generator: Adobe Illustrator 24.2.3, SVG Export Plug-In . SVG Version: 6.00 Build 0)  -->
<svg version="1.1" id="Capa_1" xmlns="http://www.w3.org/2000/svg" xmlns:xlink="http://www.w3.org/1999/xlink" x="0px" y="0px"
	 viewBox="0 0 977.7 386.5" style="enable-background:new 0 0 977.7 386.5;" xml:space="preserve">
<style type="text/css">
	.st0{fill:#FFFFFF;}
</style>
<g>
	<path class="st0" d="M198,96c0-5.6-4.2-9.8-12.3-12.6c-4.9-1.4-9.5-2.1-14-2.1c-12.3,0-21.7,6.3-28,18.6L70,253.7
		c-5.6,5.3-16.5,9.5-32.9,13c-9.5,1.8-17.2,4.2-23.1,7c-6,3.2-9.1,7.4-9.1,12.6s1.8,9.8,5.3,13.7c3.2,4.2,6.7,6.3,10.2,6.3
		c1.8,0,6.3-1.4,13-4.6c6.7-2.8,11.2-4.2,13.3-4.2c2.5,0,3.9,1.4,3.9,3.9s-0.7,6-2.5,10.5c-1.8,4.6-2.8,8.8-2.8,12.6
		c0,8.1,3.9,14.7,11.9,20c4.2,3.2,8.1,4.6,11.6,4.6c2.5,0,4.6-0.7,6.3-2.1c2.8-1.8,5.6-12.3,8.1-31.5c0.4-5.3,1.1-9.8,1.8-13
		c2.5-10.2,7-16.1,14-18.6c7-2.5,16.1-3.5,27-3.5c2.5,0,4.6,2.8,6.3,8.1c1.4,5.6,2.8,13,4.2,21.7c1.8,11.9,4.2,24.2,7.7,37.1
		c3.2,13,8.8,23.8,16.5,32.2c4.6,4.6,9.5,7,14.7,7c2.8,0,5.6-1.1,8.1-2.8c2.5-1.8,3.9-3.9,3.9-5.6s-1.1-4.2-3.5-8.1
		c-10.9-18.6-16.5-49.4-16.5-92.5c0-41.7,9.1-96,27.3-163.3C196.9,106.9,198,100.9,198,96z M137.3,228.8l-1.8,11.2
		c-1.1,6.3-5.6,10.5-14,12.3c-3.2,0.7-6,1.1-8.4,1.1c-4.6,0-7-1.1-7-2.8c0-4.6,4.2-15.4,12.6-32.9c13.7-27.3,21.4-41,23.5-41
		c1.1,0,1.4,2.1,1.4,6C143.6,191.7,141.5,207.1,137.3,228.8z"/>
	<path class="st0" d="M313.6,204.7c-7.4,0-11.6,3.5-13.3,10.2c-5.5,23.7-8.3,49-8.4,76.7c-1.2,0.6-2.4,1.4-3.5,2.5
		c0,0.4,0,0.4-0.4,0.4c-26.3,24.5-43.5,36.8-51.5,36.8c-6.3,0-9.5-8.8-9.5-26.3c0-37.5,13.7-108.3,41-213.1c1.1-3.5,1.4-6.7,1.4-9.1
		c0-5.6-2.8-9.5-8.4-11.6c-2.5-1.1-4.9-1.4-7-1.4c-7.4,0-11.9,4.6-14.4,13.3c-9.8,37.5-19.6,75.3-29.4,112.8
		c-10.2,37.8-15.1,69-15.1,93.9c0,14.7,1.8,27.3,4.9,37.5c5.3,17.2,16.5,25.6,34.3,25.6c22.1,0,41.6-11.4,58.3-34.4
		c1.4,14.8,7.7,22.2,19.1,22.2h1.1c6-0.4,9.1-1.8,9.5-3.5c0.4-1.8,0.4-3.9,0.4-5.6c0-2.5-0.4-4.6-0.7-6.7c-0.7-2.1-1.1-4.6-1.1-7
		c1.4-30.5,4.9-60.6,10.9-90.4c0.4-2.5,0.7-4.9,0.7-7.7C332.5,209.6,326.2,204.7,313.6,204.7z"/>
	<path class="st0" d="M339.2,127.9c-2.5-1.1-4.6-1.4-7-1.4c-5.3,0.4-8.8,2.5-10.5,7l-1.8,4.9c-7.4,18.6-11.2,32.2-11.2,40.7v7
		c0.4,7.4,3.9,11.6,10.5,13l4.9,0.4c4.2,0,7.4-2.5,9.5-7c11.9-29.4,17.9-46.6,17.9-51.9C351.1,135.6,347.2,131.4,339.2,127.9z"/>
	<path class="st0" d="M546.3,198.7c0-7.7-4.2-13.3-12.6-16.5c-1.4-0.4-2.8-0.7-4.6-0.7c-9.5,0-19.6,9.1-30.8,27
		c-5.3,8.8-10.2,16.8-14,24.2c-5.6,10.9-9.1,16.1-10.5,16.5c-0.4,0-0.7-1.4-0.7-3.9c0-5.6,1.8-17.9,5.3-36.4
		c0.4-1.8,0.4-4.2,0.4-7.4c-0.4-4.6-1.8-8.4-4.6-11.2c-3.5-3.5-8.4-5.3-14.4-5.3c-6.7,0.4-12.6,3.9-17.2,10.9
		c-7.7,12.3-15.1,24.2-22.1,36.4c-17.9,31.5-28.7,47.3-32.6,47.7c-1.4,0-2.1-2.5-2.1-7c0-9.8,3.5-28.7,10.2-57.1
		c0.7-2.5,1.1-4.9,1.1-7c-0.4-4.2-1.8-8.1-4.6-11.2c-3.2-3.2-7-4.6-11.6-4.6c-12.3,0-25.2,41.7-39.3,125.5v9.1
		c0.4,9.5,5.3,15.8,15.4,19.3c3.2,1.1,6.3,1.8,9.5,1.8h1.8c13.3-1.1,26.3-16.1,38.5-45.6c6-14.7,12.6-25.6,19.6-32.6
		c-3.2,17.5-4.6,32.2-4.6,44.2c1.1,8.4,6.7,14.4,17.2,17.5c2.5,0.7,4.9,1.1,7.4,1.1c12.3,0,23.1-11.9,32.2-35.7
		c3.2-8.8,7-16.5,11.2-23.1c3.2-4.6,5.3-7,6.7-7c1.4,0,2.1,3.5,2.1,10.5c0,1.8,0,3.5-0.3,6c-0.4,2.5-0.4,5.6-0.4,8.8
		c0,9.8,1.4,17.2,3.9,22.4c5.6,11.6,13.7,17.2,24.5,17.2c2.5,0,4.6-0.7,6.3-2.1c2.5-2.1,3.9-4.2,3.9-6c0-1.8-0.7-3.5-2.1-6
		c-2.8-5.3-4.2-14-4.2-26.3c0-17.9,3.9-40,11.9-66.9C544.9,214.8,546.3,206.1,546.3,198.7z"/>
	<path class="st0" d="M781.1,182.6c-3.2-1.8-6.7-2.8-10.2-2.8c-6.7,0.4-13,4.6-19.6,12.6c-13,15.8-27,34.3-42.4,56.1
		c-3.2,4.6-5.6,7-6.7,7c-1.1,0-1.4-1.4-1.4-3.9c0-6.3,2.5-17.2,7.4-32.6c1.1-3.9,1.8-7,1.8-9.1c-0.4-7-5.3-11.9-14.7-15.1
		c-2.5-0.7-4.2-1.1-6-1.1c-6,0.4-10.2,4.9-11.9,14c-4.4,20.6-9,41.2-13.6,62c-1.2-0.6-2.3-1-3.5-1c-3.2,0-7.7,2.8-13.3,8.4
		c-4.6,3.9-11.9,9.8-22.1,17.2c-15.8,11.6-28,17.2-37.5,17.2c-6.3,0-10.5-3.9-12.6-11.2c-0.4-1.4-0.7-2.8-0.7-4.2
		c0-3.2,3.2-6.3,9.5-9.5c17.9-8.4,36.8-27.3,56.8-57.1c3.5-6.7,5.3-13,5.3-18.9c0-4.9-1.1-9.5-3.5-14c-7.4-14.4-18.6-21.7-32.9-21.7
		c-17.9,0-34.3,15.4-50.1,46.3c-8.8,17.2-13.7,31.2-14.7,42.1c-1.4,10.9-2.1,17.5-2.1,20.7c0,32.9,17.9,49.4,53.3,49.4
		c4.2,0,8.8-0.4,13.7-0.7c8.8-1.1,18.6-5.6,29.4-13.7c7.8-5.8,14-11.4,18.6-16.8c0,0.7-0.1,1.3-0.1,2.1c0.4,10.5,6.7,18.2,19.3,23.5
		c3.2,1.4,6.3,2.1,9.5,2.1c7,0,13.3-5.3,19.3-15.8c24.5-43.8,37.5-65.9,38.5-65.9c0.4,0,0.7,0.7,0.7,2.1c0,1.8-0.4,4.9-0.7,9.1
		c-0.4,4.6-0.7,15.4-0.7,33.3c0.3,13,5.3,23.5,14,30.8c4.2,3.9,8.8,5.6,13.3,5.6c2.1,0,4.2-0.7,6-2.1c1.8-1.1,2.8-2.5,2.8-4.2
		c0-1.1-0.4-2.5-0.7-3.9c-1.8-1.8-2.5-8.4-2.5-20.3c0-13,5.3-41.7,16.1-85.9c0.7-3.2,1.1-6,1.1-8.4
		C792.7,194.1,788.8,187.1,781.1,182.6z M604.8,207.8c1.1-1.1,2.1-1.8,3.9-1.8c2.5,0,3.5,1.1,3.5,2.8c0,3.9-4.2,13.3-12.6,28.7
		c-5.6,10.5-11.6,17.9-17.5,22.1c-2.5-0.4-3.5-1.8-3.5-3.5C578.5,253.7,587.3,237.6,604.8,207.8z"/>
	<path class="st0" d="M925.5,138.8c3.5,1.8,6.7,2.8,9.5,2.8s5.3-1.8,7-5.3c1.1-2.5,1.8-4.9,1.8-7.4c-0.4-5.6-4.2-10.9-11.9-15.8
		c-7.7-4.9-14.4-7.7-20.3-8.4c-6-0.7-10.9-1.1-15.4-1.1l-19.3,0.4c-6.3,0-9.5-2.1-9.8-6c0-1.8,2.1-9.1,6.3-22.1
		c7-22.1,12.6-38.9,17.2-50.8c1.1-3.2,1.8-6,1.8-8.4c0-6.7-4.6-11.9-13.7-15.4c-2.8-1.1-5.3-1.4-7.4-1.4c-6.7,0-11.2,4.6-13.7,13.7
		l-23.8,83.4c-1.8,6.7-5.6,10.2-10.9,10.9l-45.2,6c-9.5,1.1-14,4.6-14,10.5c0,3.2,1.1,6.3,3.2,9.8c5.3,8.4,9.8,12.6,14.4,12.6
		c10.9,0,19.3-1.4,25.6-3.9c4.9-2.1,9.1-3.2,13-3.2c1.8,0,2.8,1.1,2.8,3.2c0,1.8-0.4,4.2-0.7,7.4c-9.8,52.9-14.7,97.8-14.7,134.6
		c0,31.9,2.8,55.4,8.4,70.4c3.2,8.8,9.8,15.1,20,19.6c1.8,1.1,3.9,1.4,5.6,1.4c5.3-0.4,8.8-1.8,11.2-4.6c1.1-1.8,1.8-3.2,1.8-4.6
		c0-1.1-0.7-2.5-1.8-4.2c-5.3-7.4-8.4-15.1-9.8-22.8c-2.1-11.6-3.2-26.6-3.2-44.9c0-50.8,5.3-100.2,16.1-148.6
		c0.7-2.8,1.4-5.3,2.5-7c1.8-3.9,14.4-5.6,37.8-5.6C909.4,134.2,919.5,135.6,925.5,138.8z"/>
	<path class="st0" d="M937.7,204c-3.2-3.2-4.6-5.6-4.9-7.4c-1.8-11.6-9.5-17.5-22.4-17.5c-8.1,0-14.4,4.2-18.9,12.3
		c-7.7,13.7-14.4,29.8-20.3,48.7c-6,18.9-8.8,34-8.8,45.2c0,7.4,1.1,13.7,3.5,19.6c4.2,10.5,9.8,17.5,17.2,21.4
		c7,3.9,13,5.6,18.2,5.6c3.9,0,8.1-1.1,11.9-2.8c11.6-5.6,20.7-16.1,27.7-31.9c7-15.8,10.9-28,11.2-37.1c0.4-8.8,0.4-13.7,0.4-14.7
		C952.5,227.1,947.6,213.4,937.7,204z M914.6,279.7c-5.3,10.9-11.6,18.6-18.9,22.4c-1.1-3.2-1.4-6.7-1.4-11.2
		c0-15.4,3.9-33.3,11.6-53.3c4.6-11.6,9.1-19.3,14-23.5c3.2,6.3,4.9,13.7,4.9,22.4C924.8,250.9,921.3,265.3,914.6,279.7z"/>
</g>
</svg>
